<svg xmlns="http://www.w3.org/2000/svg" width="1088.408" height="210.243" viewBox="0 0 1088.408 210.243">
  <g id="Google_Brackets" data-name="Google Brackets" transform="translate(-415.592 -435.645)" opacity="0.5">
    <g id="Bracket_Left" data-name="Bracket Left" transform="translate(415.592 435.645)">
      <g id="Group_3775" data-name="Group 3775">
        <path id="Path_2718" data-name="Path 2718" d="M0,0V53.594H36.412V36.143a47.054,47.054,0,0,1,2.116-15.076A26.131,26.131,0,0,1,44.5,10.861,23.168,23.168,0,0,1,53.584,5.08,34.5,34.5,0,0,1,65,3.257H88.246v25.86H77.395a19.007,19.007,0,0,0-7.974,1.354,10.347,10.347,0,0,0-4.314,3.516,10.817,10.817,0,0,0-1.773,4.77,39.064,39.064,0,0,0-.343,4.87v9.966H90.774V0Z" fill="none"/>
        <path id="Path_2719" data-name="Path 2719" d="M136.014,50.151a38.442,38.442,0,0,1,.343-4.87,10.832,10.832,0,0,1,1.773-4.77,10.347,10.347,0,0,1,4.314-3.516,19.059,19.059,0,0,1,7.974-1.354h10.851V9.777H138.02A34.584,34.584,0,0,0,126.607,11.6a23.229,23.229,0,0,0-9.085,5.781,26.131,26.131,0,0,0-5.971,10.206,47.146,47.146,0,0,0-2.116,15.076V60.114h26.579V50.148Z" transform="translate(-73.023 -6.524)" fill="#ea4335"/>
        <path id="Path_2720" data-name="Path 2720" d="M144.935,187.656q-.01,7.934-2.209,12.464a18.441,18.441,0,0,1-5.429,6.922,17.55,17.55,0,0,1-7.1,3.17,55.074,55.074,0,0,1-7.411,1.025v.213h49.928V161.11H144.935v26.546Z" transform="translate(-81.944 -107.516)" fill="none"/>
        <path id="Path_2721" data-name="Path 2721" d="M12.494,198.53a58.069,58.069,0,0,0,5.984-.452,31.252,31.252,0,0,0,7.967-2.039,19.231,19.231,0,0,0,6.976-4.764,11.68,11.68,0,0,0,2.991-8.389V161.11H0v50.34H12.494Z" transform="translate(0 -107.516)" fill="none"/>
        <path id="Path_2722" data-name="Path 2722" d="M58.487,191.275a19.231,19.231,0,0,1-6.976,4.764,31.252,31.252,0,0,1-7.967,2.039,58.065,58.065,0,0,1-5.984.452v12.92H65.915v-.213a56.162,56.162,0,0,0,7.411-1.025,17.6,17.6,0,0,0,7.1-3.17,18.475,18.475,0,0,0,5.429-6.922q2.2-4.531,2.209-12.464V161.11H61.478v21.775A11.7,11.7,0,0,1,58.487,191.275Z" transform="translate(-25.066 -107.516)" fill="#fbbc05"/>
        <path id="Path_2723" data-name="Path 2723" d="M122.8,312.669a70.2,70.2,0,0,1,7.411.9,16.526,16.526,0,0,1,7.1,3.064,18.55,18.55,0,0,1,5.429,6.909q2.205,4.551,2.209,12.478V362.77h27.783V312.43H122.8v.236Z" transform="translate(-81.95 -208.5)" fill="none"/>
        <path id="Path_2724" data-name="Path 2724" d="M36.412,341.018a11.717,11.717,0,0,0-2.991-8.393,19.342,19.342,0,0,0-6.976-4.764,31.825,31.825,0,0,0-7.967-2.046,59.972,59.972,0,0,0-5.984-.449V312.44H0v50.34H36.412V341.015Z" transform="translate(0 -208.506)" fill="none"/>
        <path id="Path_2725" data-name="Path 2725" d="M37.56,325.38a59.963,59.963,0,0,1,5.984.449,31.684,31.684,0,0,1,7.967,2.046,19.342,19.342,0,0,1,6.976,4.764,11.713,11.713,0,0,1,2.991,8.393V362.8H88.057V336.048q0-7.924-2.209-12.478a18.524,18.524,0,0,0-5.429-6.909,16.487,16.487,0,0,0-7.1-3.064,69.335,69.335,0,0,0-7.411-.9v-.236H37.56v12.927Z" transform="translate(-25.066 -208.52)" fill="#34a853"/>
        <path id="Path_2726" data-name="Path 2726" d="M62.991,473.773a38.44,38.44,0,0,0,.343,4.87,10.887,10.887,0,0,0,1.773,4.764,10.318,10.318,0,0,0,4.314,3.513,18.95,18.95,0,0,0,7.974,1.361H88.246v25.857H65a33.559,33.559,0,0,1-11.194-1.82,22.548,22.548,0,0,1-9.078-5.895A28.544,28.544,0,0,1,38.634,496.1a45.069,45.069,0,0,1-2.222-15.069V463.8H0v55.959H90.777V463.8H62.994v9.98Z" transform="translate(0 -309.516)" fill="none"/>
        <path id="Path_2727" data-name="Path 2727" d="M109.435,481a45.07,45.07,0,0,0,2.222,15.069,28.591,28.591,0,0,0,6.091,10.319,22.512,22.512,0,0,0,9.078,5.895,33.612,33.612,0,0,0,11.194,1.82h23.249V488.246H150.418a18.9,18.9,0,0,1-7.974-1.361,10.269,10.269,0,0,1-4.314-3.513,10.873,10.873,0,0,1-1.773-4.764,39.066,39.066,0,0,1-.343-4.87v-9.98H109.435v17.235Z" transform="translate(-73.023 -309.489)" fill="#4285f4"/>
      </g>
    </g>
    <g id="Bracket_Left-2" data-name="Bracket Left" transform="translate(1413.223 435.645)">
      <g id="Group_3775-2" data-name="Group 3775" transform="translate(0)">
        <path id="Path_2718-2" data-name="Path 2718" d="M90.774,0V53.594H54.362V36.143a47.054,47.054,0,0,0-2.116-15.076,26.131,26.131,0,0,0-5.971-10.206A23.168,23.168,0,0,0,37.19,5.08,34.5,34.5,0,0,0,25.777,3.257H2.528v25.86H13.379a19.007,19.007,0,0,1,7.974,1.354,10.347,10.347,0,0,1,4.314,3.516,10.817,10.817,0,0,1,1.773,4.77,39.064,39.064,0,0,1,.343,4.87v9.966H0V0Z" transform="translate(0.003)" fill="none"/>
        <path id="Path_2719-2" data-name="Path 2719" d="M134.678,50.151a38.442,38.442,0,0,0-.343-4.87,10.832,10.832,0,0,0-1.773-4.77,10.347,10.347,0,0,0-4.314-3.516,19.059,19.059,0,0,0-7.974-1.354H109.423V9.777h23.249A34.584,34.584,0,0,1,144.086,11.6a23.229,23.229,0,0,1,9.085,5.781,26.131,26.131,0,0,1,5.971,10.206,47.146,47.146,0,0,1,2.116,15.076V60.114H134.678V50.148Z" transform="translate(-106.892 -6.524)" fill="#ea4335"/>
        <path id="Path_2720-2" data-name="Path 2720" d="M150.573,187.656q.01,7.934,2.209,12.464a18.441,18.441,0,0,0,5.429,6.922,17.55,17.55,0,0,0,7.1,3.17,55.074,55.074,0,0,0,7.411,1.025v.213H122.79V161.11h27.783v26.546Z" transform="translate(-122.787 -107.516)" fill="none"/>
        <path id="Path_2721-2" data-name="Path 2721" d="M23.931,198.53a58.069,58.069,0,0,1-5.984-.452,31.252,31.252,0,0,1-7.967-2.039A19.231,19.231,0,0,1,3,191.275a11.68,11.68,0,0,1-2.991-8.389V161.11H36.426v50.34H23.931Z" transform="translate(54.351 -107.516)" fill="none"/>
        <path id="Path_2722-2" data-name="Path 2722" d="M67.133,191.275a19.231,19.231,0,0,0,6.976,4.764,31.252,31.252,0,0,0,7.967,2.039,58.065,58.065,0,0,0,5.984.452v12.92H59.7v-.213a56.162,56.162,0,0,1-7.411-1.025,17.6,17.6,0,0,1-7.1-3.17,18.475,18.475,0,0,1-5.429-6.922q-2.2-4.531-2.209-12.464V161.11H64.142v21.775A11.7,11.7,0,0,0,67.133,191.275Z" transform="translate(-9.777 -107.516)" fill="#fbbc05"/>
        <path id="Path_2723-2" data-name="Path 2723" d="M172.728,312.669a70.2,70.2,0,0,0-7.411.9,16.526,16.526,0,0,0-7.1,3.064,18.55,18.55,0,0,0-5.429,6.909q-2.205,4.551-2.209,12.478V362.77H122.8V312.43h49.928v.236Z" transform="translate(-122.8 -208.5)" fill="none"/>
        <path id="Path_2724-2" data-name="Path 2724" d="M.013,341.018A11.717,11.717,0,0,1,3,332.625a19.342,19.342,0,0,1,6.976-4.764,31.825,31.825,0,0,1,7.967-2.046,59.972,59.972,0,0,1,5.984-.449V312.44H36.425v50.34H.013V341.015Z" transform="translate(54.352 -208.506)" fill="none"/>
        <path id="Path_2725-2" data-name="Path 2725" d="M88.057,325.38a59.963,59.963,0,0,0-5.984.449,31.684,31.684,0,0,0-7.967,2.046,19.342,19.342,0,0,0-6.976,4.764,11.713,11.713,0,0,0-2.991,8.393V362.8H37.56V336.048q0-7.924,2.209-12.478a18.524,18.524,0,0,1,5.429-6.909,16.487,16.487,0,0,1,7.1-3.064,69.335,69.335,0,0,1,7.411-.9v-.236H88.057v12.927Z" transform="translate(-9.774 -208.52)" fill="#34a853"/>
        <path id="Path_2726-2" data-name="Path 2726" d="M27.786,473.773a38.44,38.44,0,0,1-.343,4.87,10.887,10.887,0,0,1-1.773,4.764,10.318,10.318,0,0,1-4.314,3.513,18.95,18.95,0,0,1-7.974,1.361H2.531v25.857H25.781a33.559,33.559,0,0,0,11.194-1.82,22.548,22.548,0,0,0,9.078-5.895A28.544,28.544,0,0,0,52.143,496.1a45.069,45.069,0,0,0,2.222-15.069V463.8H90.777v55.959H0V463.8H27.783v9.98Z" transform="translate(0 -309.516)" fill="none"/>
        <path id="Path_2727-2" data-name="Path 2727" d="M161.257,481a45.069,45.069,0,0,1-2.222,15.069,28.591,28.591,0,0,1-6.091,10.319,22.511,22.511,0,0,1-9.078,5.894,33.612,33.612,0,0,1-11.194,1.82H109.423V488.246h10.851a18.9,18.9,0,0,0,7.974-1.361,10.269,10.269,0,0,0,4.314-3.513,10.873,10.873,0,0,0,1.773-4.764,39.066,39.066,0,0,0,.343-4.87v-9.98h26.579v17.235Z" transform="translate(-106.891 -309.489)" fill="#4285f4"/>
      </g>
    </g>
  </g>
</svg>
