<svg id="Techolution_Logo-_Black_and_Green_" data-name="Techolution Logo- Black and Green " xmlns="http://www.w3.org/2000/svg" width="300" height="54" viewBox="0 0 300 54">
  <g id="Techolution_Green_Blue_Logo" data-name="Techolution Green Blue Logo" transform="translate(0 4.041)">
    <path id="Fill-35" d="M916.858-138.721l3.434,2.005L917.63-132.1h-9.615l-7.51,13.016,3.122,1.8,6.5-11.266h9.615l3.671-6.363,3.42,1.955.454-12.013Z" transform="translate(-885.303 144.97)" fill="#95c13d" fill-rule="evenodd"/>
    <g id="Clip-30" transform="translate(0 1.496)">
      <path id="path-1" d="M888.945-143.141a4.608,4.608,0,0,0-1.526.245,3.1,3.1,0,0,0-1.216.773,3.5,3.5,0,0,0-.8,1.366,6.279,6.279,0,0,0-.283,2.016v5.249a1.56,1.56,0,0,1-.4,1.122,2.577,2.577,0,0,1-.933.637,4.2,4.2,0,0,1-1.066.273,7.9,7.9,0,0,1-.8.061v3.458c.178,0,.444.02.8.06a4.271,4.271,0,0,1,1.066.274,2.587,2.587,0,0,1,.933.637,1.565,1.565,0,0,1,.4,1.123v5.217a6.035,6.035,0,0,0,.3,2.016,3.833,3.833,0,0,0,.815,1.381,3.009,3.009,0,0,0,1.215.789,4.489,4.489,0,0,0,1.5.244h3.111v-3.459H890.6a2.534,2.534,0,0,1-1.067-.182,1.377,1.377,0,0,1-.578-.47,1.453,1.453,0,0,1-.237-.637,5.217,5.217,0,0,1-.046-.652v-4.915a3.9,3.9,0,0,0-.295-1.669,2.48,2.48,0,0,0-.726-.924,2.21,2.21,0,0,0-.95-.41,9.191,9.191,0,0,0-.991-.121v-.06a7.5,7.5,0,0,0,.991-.137,2.361,2.361,0,0,0,.95-.425,2.474,2.474,0,0,0,.726-.926,3.89,3.89,0,0,0,.295-1.667v-4.884a5.207,5.207,0,0,1,.046-.652,1.449,1.449,0,0,1,.237-.638,1.385,1.385,0,0,1,.578-.47,2.548,2.548,0,0,1,1.067-.181h1.452v-3.46Z" transform="translate(-881.921 143.141)" fill="#028d9a" fill-rule="evenodd"/>
    </g>
    <path id="Clip-33" d="M942.095-143.141v3.46h1.451a2.551,2.551,0,0,1,1.067.181,1.38,1.38,0,0,1,.578.47,1.464,1.464,0,0,1,.238.638,5.191,5.191,0,0,1,.044.652v4.914a3.882,3.882,0,0,0,.3,1.669,2.457,2.457,0,0,0,.726.924,2.192,2.192,0,0,0,.949.41,9.379,9.379,0,0,0,.991.123v.06c-.316.041-.647.091-.991.152a2.2,2.2,0,0,0-.949.409,2.454,2.454,0,0,0-.726.925,3.882,3.882,0,0,0-.3,1.669v4.884a5.224,5.224,0,0,1-.044.653,1.461,1.461,0,0,1-.238.636,1.38,1.38,0,0,1-.578.47,2.552,2.552,0,0,1-1.067.181h-1.451v3.459h3.111a4.577,4.577,0,0,0,1.526-.244,2.994,2.994,0,0,0,1.2-.772,3.811,3.811,0,0,0,.8-1.365,6.051,6.051,0,0,0,.3-2.018v-5.247a1.606,1.606,0,0,1,.384-1.123,2.485,2.485,0,0,1,.9-.637,4,4,0,0,1,1.051-.273,8.1,8.1,0,0,1,.86-.061V-131.4a8.285,8.285,0,0,1-.86-.06,4,4,0,0,1-1.051-.274,2.466,2.466,0,0,1-.9-.637,1.6,1.6,0,0,1-.384-1.122v-5.218a6.03,6.03,0,0,0-.3-2.016,3.832,3.832,0,0,0-.814-1.381,3.03,3.03,0,0,0-1.2-.789,4.2,4.2,0,0,0-1.423-.245Z" transform="translate(-892.871 144.637)" fill="#028d9a" fill-rule="evenodd"/>
  </g>
  <g id="techolution" transform="translate(73.03)">
    <g id="Artboard-2" transform="translate(0 0)">
      <g id="techolution-logo-black-copy-2">
        <g id="name">
          <path id="Path" d="M972.615-132.434V-136.8h4.305v-5.948h5.219v5.948h5.742v4.363h-5.742v8.986a4.416,4.416,0,0,0,.587,2.439,2.583,2.583,0,0,0,2.327.9,8.575,8.575,0,0,0,1.522-.15,3.234,3.234,0,0,0,1.3-.492v4.322a6.806,6.806,0,0,1-2.023.535,17.164,17.164,0,0,1-2.11.15,10.843,10.843,0,0,1-3.415-.449,4.5,4.5,0,0,1-2.088-1.369,5.155,5.155,0,0,1-1.044-2.289,15.815,15.815,0,0,1-.283-3.166v-9.415Z" transform="translate(-972.615 148.606)" fill-rule="evenodd"/>
          <path id="Combined-Shape" d="M1000.218-123.523a5.187,5.187,0,0,0,1.827,3.594,5.774,5.774,0,0,0,3.784,1.284,6.312,6.312,0,0,0,3.284-.792,9.072,9.072,0,0,0,2.327-1.989l3.741,2.781a10.573,10.573,0,0,1-4.089,3.166,12.212,12.212,0,0,1-4.742.942,12.721,12.721,0,0,1-4.437-.771,10.665,10.665,0,0,1-3.611-2.182,10.371,10.371,0,0,1-2.414-3.4A10.718,10.718,0,0,1,995-125.32a10.716,10.716,0,0,1,.892-4.428,10.371,10.371,0,0,1,2.414-3.4,10.665,10.665,0,0,1,3.611-2.182,12.72,12.72,0,0,1,4.437-.771,10.3,10.3,0,0,1,3.98.748,8.525,8.525,0,0,1,3.089,2.162,9.932,9.932,0,0,1,2,3.486,14.569,14.569,0,0,1,.717,4.772v1.412Zm10.7-3.851a4.794,4.794,0,0,0-1.436-3.572,5.441,5.441,0,0,0-3.872-1.306,5.121,5.121,0,0,0-3.719,1.327,5.878,5.878,0,0,0-1.674,3.551Z" transform="translate(-976.687 147.398)" fill-rule="evenodd"/>
          <path id="Path-2" d="M1040.832-129.427a8.33,8.33,0,0,0-1.914-1.5,4.17,4.17,0,0,0-2.044-.556,6.154,6.154,0,0,0-2.566.514,6.068,6.068,0,0,0-1.935,1.369,5.779,5.779,0,0,0-1.218,1.967,6.662,6.662,0,0,0,0,4.621,5.784,5.784,0,0,0,1.218,1.967,6.056,6.056,0,0,0,1.935,1.369,6.141,6.141,0,0,0,2.566.514,5.232,5.232,0,0,0,2.26-.492,4.905,4.905,0,0,0,1.783-1.433l3.48,3.68a8.007,8.007,0,0,1-1.805,1.326,12.406,12.406,0,0,1-2.064.9,12.755,12.755,0,0,1-2,.492,10.879,10.879,0,0,1-1.653.15,12.71,12.71,0,0,1-4.437-.77,10.676,10.676,0,0,1-3.61-2.183,10.338,10.338,0,0,1-2.414-3.4,10.709,10.709,0,0,1-.892-4.428,10.709,10.709,0,0,1,.892-4.428,10.338,10.338,0,0,1,2.414-3.4,10.675,10.675,0,0,1,3.61-2.183,12.71,12.71,0,0,1,4.437-.77,11.522,11.522,0,0,1,4.024.746,9.169,9.169,0,0,1,3.545,2.375Z" transform="translate(-982.241 147.397)" fill-rule="evenodd"/>
          <path id="Path-3" d="M1057.647-135.234h.087a6.026,6.026,0,0,1,2.153-2.332,6.948,6.948,0,0,1,3.981-1.046,8.286,8.286,0,0,1,3.545.685,6.677,6.677,0,0,1,2.37,1.8,6.749,6.749,0,0,1,1.3,2.567,11.686,11.686,0,0,1,.392,3.037v12.963h-5.22v-10.4q0-.855-.087-1.9a6.75,6.75,0,0,0-.458-1.967,3.683,3.683,0,0,0-1.153-1.54,3.34,3.34,0,0,0-2.131-.621,5.072,5.072,0,0,0-2.2.428,4.217,4.217,0,0,0-1.479,1.156,4.571,4.571,0,0,0-.847,1.669,7.328,7.328,0,0,0-.262,1.967v11.21h-5.219V-149.91h5.22Z" transform="translate(-987.138 149.91)" fill-rule="evenodd"/>
          <path id="Combined-Shape-2" d="M1081.672-125.32a10.711,10.711,0,0,1,.891-4.428,10.342,10.342,0,0,1,2.414-3.4,10.674,10.674,0,0,1,3.61-2.183,13.169,13.169,0,0,1,8.874,0,10.676,10.676,0,0,1,3.611,2.183,10.364,10.364,0,0,1,2.414,3.4,10.7,10.7,0,0,1,.891,4.428,10.7,10.7,0,0,1-.891,4.428,10.364,10.364,0,0,1-2.414,3.4,10.676,10.676,0,0,1-3.611,2.183,13.169,13.169,0,0,1-8.874,0,10.675,10.675,0,0,1-3.61-2.183,10.342,10.342,0,0,1-2.414-3.4A10.71,10.71,0,0,1,1081.672-125.32Zm5.219,0a6.6,6.6,0,0,0,.413,2.311,5.8,5.8,0,0,0,1.218,1.967,6.067,6.067,0,0,0,1.935,1.369,6.671,6.671,0,0,0,5.133,0,6.069,6.069,0,0,0,1.935-1.369,5.8,5.8,0,0,0,1.218-1.967,6.66,6.66,0,0,0,0-4.621,5.788,5.788,0,0,0-1.218-1.967,6.072,6.072,0,0,0-1.935-1.369,6.671,6.671,0,0,0-5.133,0,6.069,6.069,0,0,0-1.935,1.369,5.779,5.779,0,0,0-1.218,1.967A6.593,6.593,0,0,0,1086.891-125.32Z" transform="translate(-992.458 147.398)" fill-rule="evenodd"/>
          <path id="Path-4" d="M1115.491-149.91h5.22v32.346h-5.22Z" transform="translate(-998.613 149.91)" fill-rule="evenodd"/>
          <path id="Path-5" d="M1148.261-114.939H1143.3v-3.293h-.087a7.232,7.232,0,0,1-2.26,2.674,6.773,6.773,0,0,1-4.133,1.134,8.527,8.527,0,0,1-3.545-.663,6.379,6.379,0,0,1-2.371-1.8,6.948,6.948,0,0,1-1.3-2.588,11.614,11.614,0,0,1-.392-3.038v-12.963h5.219v10.4q0,.855.087,1.9a6.757,6.757,0,0,0,.457,1.967,3.761,3.761,0,0,0,1.13,1.54,3.32,3.32,0,0,0,2.153.62,5.044,5.044,0,0,0,2.2-.428,4.212,4.212,0,0,0,1.479-1.155,4.591,4.591,0,0,0,.848-1.669,7.332,7.332,0,0,0,.261-1.967v-11.21h5.219Z" transform="translate(-1001.109 147.283)" fill-rule="evenodd"/>
          <path id="Path-6" d="M1156.754-132.434V-136.8h4.306v-5.948h5.22v5.948h5.742v4.363h-5.743v8.986a4.418,4.418,0,0,0,.587,2.439,2.582,2.582,0,0,0,2.327.9,8.574,8.574,0,0,0,1.522-.15,3.221,3.221,0,0,0,1.305-.492v4.322a6.8,6.8,0,0,1-2.023.535,17.159,17.159,0,0,1-2.109.15,10.844,10.844,0,0,1-3.415-.449,4.5,4.5,0,0,1-2.088-1.369,5.161,5.161,0,0,1-1.045-2.289,15.815,15.815,0,0,1-.283-3.166v-9.415Z" transform="translate(-1006.121 148.606)" fill-rule="evenodd"/>
          <path id="Path-7" d="M1180.628-135.474h5.22v20.535h-5.22Z" transform="translate(-1010.465 147.283)" fill-rule="evenodd"/>
          <path id="Path-8" d="M1179.724-144.688a2.933,2.933,0,0,1,.936-2.161,3.239,3.239,0,0,1,2.37-.92,3.484,3.484,0,0,1,2.414.879,2.833,2.833,0,0,1,.978,2.2,2.831,2.831,0,0,1-.978,2.2,3.488,3.488,0,0,1-2.414.879,3.24,3.24,0,0,1-2.37-.921A2.93,2.93,0,0,1,1179.724-144.688Z" transform="translate(-1010.3 149.521)" fill-rule="evenodd"/>
          <path id="Combined-Shape-3" d="M1193.07-125.32a10.707,10.707,0,0,1,.892-4.428,10.363,10.363,0,0,1,2.414-3.4,10.681,10.681,0,0,1,3.611-2.183,13.169,13.169,0,0,1,8.874,0,10.682,10.682,0,0,1,3.61,2.183,10.364,10.364,0,0,1,2.414,3.4,10.7,10.7,0,0,1,.892,4.428,10.7,10.7,0,0,1-.892,4.428,10.364,10.364,0,0,1-2.414,3.4,10.682,10.682,0,0,1-3.61,2.183,13.169,13.169,0,0,1-8.874,0,10.681,10.681,0,0,1-3.611-2.183,10.363,10.363,0,0,1-2.414-3.4A10.707,10.707,0,0,1,1193.07-125.32Zm5.22,0a6.576,6.576,0,0,0,.414,2.311,5.793,5.793,0,0,0,1.217,1.967,6.072,6.072,0,0,0,1.936,1.369,6.67,6.67,0,0,0,5.133,0,6.072,6.072,0,0,0,1.936-1.369,5.8,5.8,0,0,0,1.218-1.967,6.663,6.663,0,0,0,0-4.621,5.787,5.787,0,0,0-1.218-1.967,6.074,6.074,0,0,0-1.936-1.369,6.67,6.67,0,0,0-5.133,0,6.061,6.061,0,0,0-1.934,1.369,5.781,5.781,0,0,0-1.218,1.967,6.577,6.577,0,0,0-.415,2.311Z" transform="translate(-1012.729 147.398)" fill-rule="evenodd"/>
          <path id="Path-9" d="M1226.783-135.59h4.959v3.3h.087a7.223,7.223,0,0,1,2.26-2.675,6.774,6.774,0,0,1,4.134-1.134,8.3,8.3,0,0,1,3.545.685,6.7,6.7,0,0,1,2.371,1.8,6.767,6.767,0,0,1,1.3,2.567,11.61,11.61,0,0,1,.392,3.038v12.963h-5.218v-10.4q0-.855-.087-1.9a6.741,6.741,0,0,0-.457-1.967,3.7,3.7,0,0,0-1.152-1.54,3.344,3.344,0,0,0-2.133-.62,5.042,5.042,0,0,0-2.2.428,4.209,4.209,0,0,0-1.48,1.155,4.573,4.573,0,0,0-.848,1.669,7.311,7.311,0,0,0-.261,1.967v11.209h-5.22Z" transform="translate(-1018.864 147.398)" fill-rule="evenodd"/>
        </g>
      </g>
    </g>
  </g>
  <g id="Innovation_Done_Right" data-name="Innovation Done Right" transform="translate(137.556 39.944)">
    <path id="Path_2645" data-name="Path 2645" d="M1052.87-91.021h-1.376v-10.431h1.376Z" transform="translate(-1051.494 102.025)"/>
    <path id="Path_2646" data-name="Path 2646" d="M1058.846-98.208l.043.974a2.824,2.824,0,0,1,2.322-1.117q2.457,0,2.479,2.772v5.122h-1.325v-5.129a1.785,1.785,0,0,0-.384-1.239,1.538,1.538,0,0,0-1.172-.4,1.911,1.911,0,0,0-1.131.344,2.329,2.329,0,0,0-.76.9v5.523h-1.325v-7.751Z" transform="translate(-1052.603 101.46)"/>
    <path id="Path_2647" data-name="Path 2647" d="M1070.338-98.208l.043.974a2.826,2.826,0,0,1,2.322-1.117q2.457,0,2.479,2.772v5.122h-1.325v-5.129a1.783,1.783,0,0,0-.384-1.239,1.534,1.534,0,0,0-1.17-.4,1.911,1.911,0,0,0-1.132.344,2.331,2.331,0,0,0-.76.9v5.523h-1.325v-7.751Z" transform="translate(-1054.695 101.46)"/>
    <path id="Path_2648" data-name="Path 2648" d="M1080.146-94.4a4.574,4.574,0,0,1,.448-2.049,3.336,3.336,0,0,1,1.247-1.4,3.389,3.389,0,0,1,1.822-.494,3.267,3.267,0,0,1,2.561,1.1,4.215,4.215,0,0,1,.978,2.915v.092a4.622,4.622,0,0,1-.434,2.031,3.291,3.291,0,0,1-1.239,1.4,3.439,3.439,0,0,1-1.852.5,3.259,3.259,0,0,1-2.554-1.1,4.193,4.193,0,0,1-.978-2.9Zm1.332.157a3.324,3.324,0,0,0,.6,2.071,1.916,1.916,0,0,0,1.6.78,1.9,1.9,0,0,0,1.6-.792,3.626,3.626,0,0,0,.594-2.217,3.308,3.308,0,0,0-.6-2.066,1.924,1.924,0,0,0-1.609-.792,1.9,1.9,0,0,0-1.582.78A3.6,3.6,0,0,0,1081.478-94.247Z" transform="translate(-1056.707 101.46)"/>
    <path id="Path_2649" data-name="Path 2649" d="M1094.657-92.223l1.919-5.953h1.354l-2.78,7.751h-1.009l-2.808-7.751h1.354Z" transform="translate(-1058.743 101.428)"/>
    <path id="Path_2650" data-name="Path 2650" d="M1107.157-90.457a2.774,2.774,0,0,1-.187-.816,2.957,2.957,0,0,1-2.206.96,2.738,2.738,0,0,1-1.881-.648,2.1,2.1,0,0,1-.734-1.644,2.192,2.192,0,0,1,.92-1.881,4.347,4.347,0,0,1,2.59-.67h1.29v-.609a1.487,1.487,0,0,0-.415-1.107,1.674,1.674,0,0,0-1.226-.411,1.93,1.93,0,0,0-1.189.357,1.055,1.055,0,0,0-.48.867h-1.333a1.826,1.826,0,0,1,.412-1.121,2.8,2.8,0,0,1,1.117-.856,3.754,3.754,0,0,1,1.55-.315,3.067,3.067,0,0,1,2.1.669,2.421,2.421,0,0,1,.787,1.845v3.567a4.346,4.346,0,0,0,.273,1.7v.114Zm-2.2-1.009a2.328,2.328,0,0,0,1.182-.323,1.948,1.948,0,0,0,.81-.838v-1.59h-1.039q-2.436,0-2.435,1.426a1.205,1.205,0,0,0,.415.973A1.6,1.6,0,0,0,1104.958-91.466Z" transform="translate(-1060.711 101.46)"/>
    <path id="Path_2651" data-name="Path 2651" d="M1115.363-100.47v1.877h1.447v1.024h-1.447v4.813a1.083,1.083,0,0,0,.193.7.818.818,0,0,0,.659.232,3.2,3.2,0,0,0,.63-.085v1.068a3.866,3.866,0,0,1-1.017.142,1.654,1.654,0,0,1-1.34-.537,2.309,2.309,0,0,1-.451-1.526v-4.808h-1.412v-1.024h1.412v-1.877Z" transform="translate(-1062.618 101.846)"/>
    <path id="Path_2652" data-name="Path 2652" d="M1121.237-100.861a.785.785,0,0,1,.2-.544.738.738,0,0,1,.583-.223.751.751,0,0,1,.587.223.783.783,0,0,1,.2.544.759.759,0,0,1-.2.537.765.765,0,0,1-.587.215.752.752,0,0,1-.583-.215A.76.76,0,0,1,1121.237-100.861Zm1.433,9.807h-1.325V-98.8h1.325Z" transform="translate(-1064.184 102.056)"/>
    <path id="Path_2653" data-name="Path 2653" d="M1126.748-94.4a4.585,4.585,0,0,1,.448-2.049,3.343,3.343,0,0,1,1.247-1.4,3.393,3.393,0,0,1,1.823-.494,3.268,3.268,0,0,1,2.561,1.1,4.213,4.213,0,0,1,.978,2.915v.092a4.622,4.622,0,0,1-.434,2.031,3.3,3.3,0,0,1-1.24,1.4,3.435,3.435,0,0,1-1.852.5,3.259,3.259,0,0,1-2.554-1.1,4.2,4.2,0,0,1-.978-2.9Zm1.333.157a3.318,3.318,0,0,0,.6,2.071,1.917,1.917,0,0,0,1.6.78,1.9,1.9,0,0,0,1.6-.792,3.621,3.621,0,0,0,.595-2.217,3.308,3.308,0,0,0-.605-2.066,1.923,1.923,0,0,0-1.608-.792,1.9,1.9,0,0,0-1.584.78A3.6,3.6,0,0,0,1128.08-94.247Z" transform="translate(-1065.187 101.46)"/>
    <path id="Path_2654" data-name="Path 2654" d="M1140.256-98.208l.042.974a2.826,2.826,0,0,1,2.322-1.117q2.457,0,2.479,2.772v5.122h-1.325v-5.129a1.783,1.783,0,0,0-.384-1.239,1.534,1.534,0,0,0-1.17-.4,1.912,1.912,0,0,0-1.132.344,2.331,2.331,0,0,0-.76.9v5.523H1139v-7.751Z" transform="translate(-1067.417 101.46)"/>
    <path id="Path_2655" data-name="Path 2655" d="M1156.137-95.088a4.542,4.542,0,0,1,.845-2.87,2.673,2.673,0,0,1,2.214-1.085,2.688,2.688,0,0,1,2.156.932v-4.041h1.325v11h-1.217l-.065-.83a2.7,2.7,0,0,1-2.214.973,2.646,2.646,0,0,1-2.2-1.1,4.588,4.588,0,0,1-.849-2.88Zm1.325.15a3.443,3.443,0,0,0,.544,2.064,1.76,1.76,0,0,0,1.5.744,1.934,1.934,0,0,0,1.842-1.131v-3.56a1.948,1.948,0,0,0-1.828-1.1,1.769,1.769,0,0,0-1.518.752A3.79,3.79,0,0,0,1157.462-94.938Z" transform="translate(-1070.535 102.152)"/>
    <path id="Path_2656" data-name="Path 2656" d="M1167.813-94.4a4.588,4.588,0,0,1,.447-2.049,3.345,3.345,0,0,1,1.248-1.4,3.387,3.387,0,0,1,1.823-.494,3.268,3.268,0,0,1,2.561,1.1,4.215,4.215,0,0,1,.978,2.915v.092a4.614,4.614,0,0,1-.434,2.031,3.289,3.289,0,0,1-1.239,1.4,3.441,3.441,0,0,1-1.852.5,3.259,3.259,0,0,1-2.554-1.1,4.193,4.193,0,0,1-.978-2.9Zm1.332.157a3.317,3.317,0,0,0,.6,2.071,1.916,1.916,0,0,0,1.6.78,1.9,1.9,0,0,0,1.6-.792,3.627,3.627,0,0,0,.594-2.217,3.309,3.309,0,0,0-.605-2.066,1.922,1.922,0,0,0-1.608-.792,1.9,1.9,0,0,0-1.583.78A3.6,3.6,0,0,0,1169.145-94.247Z" transform="translate(-1072.66 101.46)"/>
    <path id="Path_2657" data-name="Path 2657" d="M1181.319-98.208l.042.974a2.824,2.824,0,0,1,2.321-1.117q2.457,0,2.479,2.772v5.122h-1.326v-5.129a1.783,1.783,0,0,0-.383-1.239,1.536,1.536,0,0,0-1.171-.4,1.917,1.917,0,0,0-1.132.344,2.335,2.335,0,0,0-.759.9v5.523h-1.326v-7.751Z" transform="translate(-1074.888 101.46)"/>
    <path id="Path_2658" data-name="Path 2658" d="M1194.7-90.314a3.383,3.383,0,0,1-2.564-1.035,3.84,3.84,0,0,1-.989-2.768v-.244a4.64,4.64,0,0,1,.441-2.06,3.423,3.423,0,0,1,1.231-1.418,3.1,3.1,0,0,1,1.716-.512,2.9,2.9,0,0,1,2.35,1,4.305,4.305,0,0,1,.839,2.851v.552h-5.251a2.759,2.759,0,0,0,.67,1.852,2.1,2.1,0,0,0,1.629.705,2.3,2.3,0,0,0,1.189-.286,2.97,2.97,0,0,0,.853-.76l.81.631A3.255,3.255,0,0,1,1194.7-90.314Zm-.165-6.948a1.764,1.764,0,0,0-1.347.584,2.84,2.84,0,0,0-.674,1.637h3.882v-.1a2.511,2.511,0,0,0-.544-1.565A1.666,1.666,0,0,0,1194.535-97.262Z" transform="translate(-1076.906 101.46)"/>
    <path id="Path_2659" data-name="Path 2659" d="M1212.439-97.018a3.966,3.966,0,0,0-.652-.051,1.744,1.744,0,0,0-1.769,1.111v5.5h-1.326v-7.751h1.29l.021.895a2.063,2.063,0,0,1,1.848-1.038,1.372,1.372,0,0,1,.588.1Z" transform="translate(-1080.097 101.46)"/>
    <path id="Path_2660" data-name="Path 2660" d="M1216.366-100.861a.791.791,0,0,1,.2-.544.742.742,0,0,1,.584-.223.749.749,0,0,1,.587.223.779.779,0,0,1,.2.544.755.755,0,0,1-.2.537.763.763,0,0,1-.587.215.756.756,0,0,1-.584-.215A.766.766,0,0,1,1216.366-100.861Zm1.432,9.807h-1.325V-98.8h1.325Z" transform="translate(-1081.494 102.056)"/>
    <path id="Path_2661" data-name="Path 2661" d="M1221.921-94.4a4.558,4.558,0,0,1,.838-2.884,2.681,2.681,0,0,1,2.221-1.07,2.668,2.668,0,0,1,2.214,1l.064-.859h1.212v7.565a3.153,3.153,0,0,1-.891,2.371,3.3,3.3,0,0,1-2.4.867,3.992,3.992,0,0,1-1.641-.358,2.83,2.83,0,0,1-1.225-.982l.688-.8a2.59,2.59,0,0,0,2.084,1.053,2.032,2.032,0,0,0,1.509-.544,2.085,2.085,0,0,0,.541-1.534v-.665a2.724,2.724,0,0,1-2.171.916,2.649,2.649,0,0,1-2.2-1.1A4.792,4.792,0,0,1,1221.921-94.4Zm1.333.15a3.479,3.479,0,0,0,.536,2.06,1.747,1.747,0,0,0,1.5.748,1.943,1.943,0,0,0,1.842-1.139v-3.539a1.964,1.964,0,0,0-1.827-1.11,1.762,1.762,0,0,0-1.512.752A3.79,3.79,0,0,0,1223.254-94.247Z" transform="translate(-1082.505 101.46)"/>
    <path id="Path_2662" data-name="Path 2662" d="M1235.29-97.961a2.815,2.815,0,0,1,2.292-1.081q2.458,0,2.479,2.772v5.122h-1.325v-5.129a1.784,1.784,0,0,0-.384-1.239,1.533,1.533,0,0,0-1.171-.4,1.915,1.915,0,0,0-1.132.344,2.337,2.337,0,0,0-.759.9v5.523h-1.325v-11h1.325Z" transform="translate(-1084.697 102.152)"/>
    <path id="Path_2663" data-name="Path 2663" d="M1247.029-100.47v1.877h1.446v1.024h-1.446v4.813a1.078,1.078,0,0,0,.193.7.815.815,0,0,0,.659.232,3.2,3.2,0,0,0,.63-.085v1.068a3.87,3.87,0,0,1-1.018.142,1.652,1.652,0,0,1-1.339-.537,2.309,2.309,0,0,1-.451-1.526v-4.808h-1.412v-1.024h1.412v-1.877Z" transform="translate(-1086.576 101.846)"/>
  </g>
</svg>
